# xmcd CD database file
#
# Track frame offsets:
#	180
#	74737
#	129847
#	210365
#	257895
#	310450
#
# Disc length: 4257 seconds
#
# Revision: 0
# Processed by: cddbd v1.5PL3 Copyright (c) Steve Scherf et al.
# Submitted via: CDex 1.51
#
DISCID=57109f06
DTITLE=Art Blakey - Olympia 13 Mai 1961
DYEAR=1961
DGENRE=Jazz
TTITLE0=Lost and Found
TTITLE1=Round Midnight
TTITLE2=Kozo's Waltz
TTITLE3=Unidentified
TTITLE4=Night In Tunisia
TTITLE5=The Theme
EXTD=YEAR: 1961
EXTT0=
EXTT1=
EXTT2=
EXTT3=
EXTT4=
EXTT5=
PLAYORDER=
